<?xml version="1.0" standalone="no"?>
<!DOCTYPE svg PUBLIC "-//W3C//DTD SVG 20010904//EN"
 "http://www.w3.org/TR/2001/REC-SVG-20010904/DTD/svg10.dtd">
<svg version="1.0" xmlns="http://www.w3.org/2000/svg"
 width="696.000000pt" height="438.000000pt" viewBox="0 0 696.000000 438.000000"
 preserveAspectRatio="xMidYMid meet">

<g transform="translate(0.000000,438.000000) scale(0.100000,-0.100000)"
fill="#5c00a8" stroke="none">
<path d="M2675 4214 c-16 -12 -36 -14 -101 -9 -73 6 -83 5 -95 -12 -18 -24
-64 -53 -84 -53 -8 0 -24 -9 -35 -20 -11 -11 -23 -20 -27 -20 -5 0 -19 -16
-33 -36 -13 -20 -45 -58 -70 -84 -77 -80 -101 -156 -96 -303 4 -81 7 -93 42
-150 20 -34 50 -78 66 -98 15 -20 28 -42 28 -48 0 -6 20 -32 45 -56 44 -45 86
-58 101 -34 4 8 13 1 23 -19 23 -44 149 -156 204 -182 71 -33 149 -142 112
-156 -17 -7 -20 -40 -5 -49 21 -13 8 -39 -50 -99 -34 -36 -84 -75 -117 -91
-79 -40 -172 -112 -178 -138 -11 -45 3 -139 24 -168 12 -15 21 -36 21 -46 0
-10 4 -24 9 -31 6 -10 10 -6 13 13 6 30 -16 85 -25 63 -4 -9 -6 -8 -6 3 -1 9
8 24 19 34 11 10 20 24 20 31 0 9 6 11 18 7 15 -6 15 -5 2 11 -12 16 -12 20 7
34 26 22 183 229 183 243 0 19 20 5 41 -27 l19 -31 -34 -52 c-19 -28 -38 -61
-42 -73 -6 -19 -3 -18 19 7 26 30 34 21 18 -20 -5 -11 -4 -28 1 -37 5 -10 5
-18 0 -18 -5 0 -14 -10 -20 -22 -10 -21 -11 -19 -12 17 -2 40 -2 40 -11 10 -5
-16 -7 -36 -4 -42 2 -7 0 -13 -4 -13 -12 0 -46 -88 -38 -96 6 -6 37 60 37 77
0 5 5 9 11 9 27 0 -30 -184 -71 -230 -29 -33 -42 -90 -20 -90 6 0 10 16 10 35
0 19 5 35 10 35 6 0 10 -9 10 -20 0 -27 16 -25 23 2 4 12 9 19 13 16 3 -4 4
-18 0 -32 -4 -17 -11 -23 -21 -20 -17 7 -21 -16 -6 -32 13 -13 42 -153 41
-196 -1 -40 5 -45 30 -25 17 13 18 18 22 71 1 22 6 32 11 27 5 -5 16 -7 24 -4
9 4 16 -2 20 -16 l6 -22 14 21 c8 12 13 22 12 24 -2 1 -16 10 -31 19 -16 10
-28 24 -28 32 0 15 -4 26 -29 73 -18 34 -26 183 -13 234 6 24 21 84 32 133 11
50 25 98 30 107 6 10 10 28 10 41 0 13 9 32 20 42 20 18 21 18 27 -4 5 -19 10
-21 37 -15 27 6 29 5 17 -10 -7 -9 -19 -16 -26 -16 -17 0 -27 -41 -13 -57 6
-8 8 -31 4 -59 -3 -26 -2 -43 3 -39 16 10 22 -12 10 -42 -6 -15 -13 -44 -16
-63 -2 -19 -6 -48 -9 -65 -7 -47 -15 -240 -10 -234 6 5 32 182 41 274 6 59 11
65 26 31 17 -35 16 -36 88 25 14 12 31 -3 31 -28 0 -15 -26 -18 -34 -4 -3 5
-21 -6 -40 -23 -20 -19 -30 -35 -25 -40 15 -16 10 -36 -6 -30 -23 9 -18 -4 6
-17 28 -15 99 15 99 43 0 10 7 18 15 18 17 0 21 35 5 45 -6 4 -8 10 -5 14 9
15 -27 72 -51 81 -27 11 -29 18 -10 43 14 18 15 18 24 0 9 -14 13 -16 23 -5 7
6 22 12 34 12 12 0 26 5 33 12 9 9 12 9 12 1 0 -7 -5 -15 -10 -18 -6 -4 -7
-12 -1 -22 4 -9 6 -25 3 -36 -4 -16 -2 -19 12 -14 10 4 27 7 38 7 19 0 19 2
-6 26 -14 15 -26 30 -26 35 0 14 18 20 25 8 4 -5 13 -8 21 -5 7 3 16 1 19 -5
4 -5 10 -7 15 -4 9 6 35 -23 27 -31 -3 -3 -14 -1 -25 5 -12 6 -27 11 -34 11
-7 -1 -1 -8 15 -16 24 -13 26 -17 13 -30 -8 -8 -17 -23 -21 -33 -3 -11 -20
-24 -37 -30 -17 -6 -29 -14 -26 -17 4 -3 20 2 37 10 16 9 40 16 51 16 12 0 31
5 42 11 13 7 18 7 14 1 -9 -15 -66 -42 -88 -42 -10 0 -18 -4 -18 -9 0 -5 -19
-12 -42 -16 -55 -9 -66 -19 -60 -51 4 -23 2 -25 -20 -23 -15 2 -37 -7 -58 -24
-31 -23 -35 -24 -38 -9 -10 46 -22 31 -23 -29 -1 -35 -3 -77 -5 -94 -3 -31 -4
-103 -2 -130 4 -49 38 24 39 84 0 20 4 45 8 56 5 11 4 29 -1 40 -8 19 -8 19 5
3 15 -20 37 -24 37 -8 0 6 5 10 10 10 6 0 10 -9 10 -19 0 -29 14 -33 39 -12
13 12 19 25 15 35 -5 12 4 29 27 52 19 20 27 34 19 34 -31 0 11 24 47 27 21 1
39 7 41 13 4 12 32 14 32 2 0 -5 -10 -14 -22 -20 -26 -13 -71 -40 -105 -62
-24 -16 -29 -36 -13 -60 7 -12 12 -12 29 4 12 11 21 16 21 13 0 -10 89 41 134
76 21 17 37 25 34 17 -10 -32 -234 -160 -282 -161 -43 -1 -61 -10 -63 -34 -1
-11 -4 -33 -7 -48 -5 -23 -1 -29 19 -37 14 -5 25 -17 25 -26 0 -16 -2 -16 -19
0 -23 21 -49 13 -31 -9 13 -16 0 -24 -65 -45 -38 -12 -59 -21 -126 -56 -28
-15 -31 -15 -44 3 -8 10 -15 13 -15 7 0 -5 5 -15 12 -22 8 -8 5 -14 -15 -23
-15 -7 -27 -16 -27 -21 0 -4 -5 -8 -10 -8 -11 0 -4 63 10 89 9 18 -16 97 -42
130 -13 17 -15 27 -7 31 7 5 2 16 -15 33 -14 14 -26 35 -26 46 0 27 -70 201
-81 201 -5 0 -3 -15 5 -34 l14 -34 -39 3 c-21 2 -39 -1 -39 -6 0 -5 10 -8 21
-6 12 1 24 -4 27 -12 3 -10 -3 -13 -26 -9 -21 3 -29 1 -25 -8 2 -7 18 -12 34
-12 35 1 75 -33 66 -55 -5 -13 -13 -13 -49 -5 -24 6 -48 17 -54 25 -9 10 -13
11 -16 2 -8 -23 -28 2 -28 33 0 22 -4 29 -14 25 -9 -4 -17 1 -20 11 -6 20 1
-25 10 -65 l7 -28 -22 24 c-11 13 -21 19 -21 14 0 -6 -11 -10 -25 -9 -19 1
-25 7 -25 24 0 14 -8 26 -22 31 -14 5 -17 10 -10 15 7 4 12 4 12 -1 0 -11 20
20 20 31 0 6 -5 5 -12 -2 -7 -7 -30 -12 -51 -12 -34 0 -38 -2 -27 -15 7 -8 19
-15 26 -15 19 0 18 -19 -1 -26 -20 -8 -47 22 -47 52 0 13 -4 24 -9 24 -5 0 -9
-6 -9 -14 0 -8 -17 -24 -37 -37 -31 -18 -34 -23 -19 -27 10 -2 23 1 29 7 19
19 47 12 57 -15 6 -15 17 -25 27 -23 33 3 41 -1 39 -18 -1 -11 11 -20 36 -27
20 -6 39 -14 42 -17 3 -3 45 -4 93 -3 114 3 148 -16 173 -92 15 -44 3 -60 -59
-78 -50 -14 -71 -46 -29 -44 13 1 41 1 63 0 43 -2 39 -13 -13 -30 -28 -10 -40
-8 -72 8 -22 11 -49 20 -61 20 -11 0 -32 9 -46 20 -17 13 -41 20 -71 20 -48 0
-112 18 -112 32 0 4 -4 8 -10 8 -6 0 -10 -29 -10 -67 -1 -62 -18 -165 -34
-204 -4 -9 1 -26 14 -40 l20 -24 -6 43 -7 42 29 -15 c16 -8 32 -15 37 -15 14
0 7 26 -13 43 -20 17 -29 54 -10 42 5 -3 31 5 58 19 64 32 252 60 252 37 0 -6
-21 -31 -47 -57 -29 -30 -42 -49 -34 -52 7 -2 18 1 24 7 15 15 27 14 27 -4 0
-9 -12 -20 -26 -25 -19 -8 -25 -16 -21 -30 3 -11 1 -20 -4 -20 -5 0 -9 -9 -9
-20 0 -16 5 -19 33 -14 27 4 29 4 14 -6 -10 -7 -28 -10 -38 -7 -13 4 -22 0
-26 -11 -4 -9 -11 -20 -17 -24 -8 -6 -7 -11 3 -17 11 -7 11 -17 -4 -62 -10
-30 -22 -59 -27 -66 -11 -14 10 -90 21 -76 4 4 13 28 20 51 17 60 24 47 10
-19 l-12 -53 33 -27 c30 -26 74 -39 98 -31 7 2 10 8 6 13 -3 5 4 9 16 9 19 0
20 1 6 16 -23 22 -20 26 13 19 28 -6 30 -4 36 27 3 18 7 38 7 43 1 9 51 109
83 164 16 28 45 48 45 31 0 -6 5 -8 10 -5 6 3 10 -1 10 -9 0 -23 17 -20 23 4
6 23 27 27 27 5 0 -22 18 -18 25 5 3 11 11 20 17 20 6 0 19 10 29 22 11 11 19
16 19 10 0 -7 7 -12 16 -12 14 0 14 3 4 15 -10 13 -9 15 11 15 22 1 23 2 6 14
-15 12 -15 15 -2 26 10 9 15 9 15 1 0 -19 16 -12 28 11 8 18 11 19 11 6 1 -19
16 -24 25 -9 5 8 76 21 76 14 0 -1 -16 -9 -35 -17 -36 -16 -40 -22 -26 -44 7
-11 11 -11 23 2 9 8 18 12 22 9 3 -4 6 0 6 7 0 9 5 7 16 -6 8 -10 12 -12 8 -4
-5 10 1 8 16 -5 22 -19 23 -19 16 -1 -5 16 -4 17 9 6 9 -7 19 -10 22 -6 4 4 3
10 -3 14 -6 4 -13 14 -16 23 -5 13 0 15 38 9 51 -8 55 -10 57 -38 0 -11 5 -18
9 -16 5 3 6 10 3 15 -3 5 1 6 9 3 47 -18 -12 46 -72 79 -25 14 -36 16 -47 7
-10 -9 -15 -7 -20 9 -3 12 -13 21 -21 21 -8 0 -14 5 -14 10 0 6 4 10 10 10 5
0 7 6 4 14 -3 8 4 36 15 62 12 26 19 49 16 52 -2 3 13 17 34 33 21 15 55 54
74 86 20 33 45 67 56 77 12 11 35 41 52 67 17 27 36 46 42 42 5 -3 7 -2 4 4
-9 15 51 55 72 48 10 -3 29 3 44 15 22 18 29 19 54 8 40 -17 136 -91 168 -130
l27 -32 78 81 c58 59 76 84 67 91 -20 15 -77 30 -147 37 -36 3 -104 15 -152
26 -96 23 -112 21 -177 -23 -28 -18 -46 -25 -51 -19 -4 7 -17 8 -40 1 -54 -15
-67 -12 -75 17 -4 19 -2 29 9 35 8 5 13 15 10 23 -4 9 3 16 20 21 14 3 31 13
38 21 11 14 10 15 -7 10 -11 -3 -36 -7 -55 -9 -31 -3 -35 0 -35 21 0 18 10 29
42 45 63 32 62 45 -3 40 -52 -4 -54 -4 -54 21 0 14 4 25 8 25 5 0 19 9 32 20
13 11 29 20 37 20 7 0 13 6 13 13 0 9 -12 11 -40 9 -26 -3 -44 1 -54 11 -22
21 -65 10 -72 -19 -9 -37 2 -54 36 -54 16 0 30 -3 30 -6 0 -18 -77 -67 -91
-58 -8 5 -8 8 0 13 11 7 4 81 -9 81 -9 0 10 123 21 135 6 6 12 2 15 -13 4 -15
14 -22 30 -22 12 0 25 -4 29 -10 9 -14 37 0 31 16 -3 9 2 14 13 14 11 0 28 3
38 7 14 5 7 10 -27 18 -45 11 -45 11 -48 58 l-3 47 48 -5 c48 -5 48 -5 18 9
-16 9 -35 15 -41 16 -10 0 -28 80 -20 87 1 1 19 -2 40 -8 47 -13 57 -6 19 13
-21 10 -28 21 -28 41 1 19 -4 27 -16 27 -17 0 -28 -33 -32 -98 -2 -18 -8 -36
-15 -41 -6 -4 -15 -21 -18 -39 -5 -24 -3 -33 10 -38 9 -3 16 -13 16 -21 0 -36
-47 33 -53 76 -3 24 -11 48 -19 52 -14 9 -64 6 -75 -4 -13 -13 -53 -7 -53 8 0
8 -4 15 -8 15 -4 0 -8 19 -9 41 -2 38 3 48 63 113 58 63 113 150 102 161 -2 2
-34 -31 -71 -74 -123 -143 -201 -162 -313 -75 -32 24 -63 45 -71 45 -7 1 -18
2 -25 3 -6 0 -22 21 -35 46 -13 25 -46 65 -73 90 -48 45 -54 57 -64 132 -3 29
0 41 13 50 20 15 35 48 21 48 -16 0 -11 26 7 41 13 11 17 11 20 2 3 -7 9 -13
14 -13 6 0 7 6 3 13 -6 9 -5 9 7 0 11 -9 19 -9 26 -2 8 8 17 5 32 -10 34 -34
51 -28 30 10 -26 49 -109 54 -165 10 -33 -26 -50 -10 -27 26 13 20 23 23 75
23 55 0 59 2 47 16 -10 13 -25 15 -67 11 l-53 -6 14 23 c9 13 15 43 15 67 -1
43 18 97 45 131 22 28 175 27 220 -1 19 -11 37 -18 40 -15 4 4 38 -6 77 -22
79 -32 117 -68 185 -175 36 -57 40 -60 46 -38 l6 24 11 -25 c5 -14 15 -37 21
-52 12 -31 36 -29 46 2 7 21 -15 69 -39 89 -14 12 -14 16 -1 34 19 27 19 60 0
97 -8 16 -22 50 -31 77 -9 26 -23 52 -30 56 -8 4 -14 17 -14 28 0 11 -4 18 -9
14 -5 -3 -13 0 -17 6 -4 8 -3 9 4 5 8 -5 12 0 12 13 0 14 -13 26 -44 40 -43
19 -76 60 -76 95 0 23 -57 58 -98 60 -20 1 -46 6 -57 13 -37 20 -79 23 -100 7z
m-90 -184 c3 -5 1 -10 -4 -10 -6 0 -11 5 -11 10 0 6 2 10 4 10 3 0 8 -4 11
-10z m65 -30 c11 -7 7 -10 -17 -10 -18 0 -33 5 -33 10 0 13 30 13 50 0z m414
-1256 c-1 -63 -5 -79 -20 -87 -10 -6 -29 -21 -41 -33 l-23 -23 -22 30 c-14 17
-34 30 -51 31 -15 1 -27 5 -27 9 0 11 50 28 67 23 15 -5 16 -4 3 5 -13 9 -13
14 4 41 10 17 16 40 13 50 -6 23 5 28 59 29 l40 1 -2 -76z m-309 46 c3 -5 2
-10 -4 -10 -5 0 -13 5 -16 10 -3 6 -2 10 4 10 5 0 13 -4 16 -10z m135 -15 c7
-9 8 -15 2 -15 -5 0 -12 7 -16 15 -3 8 -4 15 -2 15 2 0 9 -7 16 -15z m-34
-102 c-10 -10 -19 5 -10 18 6 11 8 11 12 0 2 -7 1 -15 -2 -18z m-252 5 c-16
-28 -38 -48 -53 -48 -11 1 -4 11 19 30 38 33 45 36 34 18z m366 -99 c0 -33 0
-32 -34 -20 -20 8 -27 6 -40 -14 -11 -16 -22 -22 -33 -18 -14 5 -13 8 5 14 12
5 22 13 22 18 0 6 11 13 25 17 13 3 27 15 30 25 9 27 25 13 25 -22z m-46 -123
c-3 -7 -17 -18 -32 -25 l-27 -11 28 25 c32 28 39 31 31 11z m422 -157 c3 -6
-3 -20 -14 -32 -17 -17 -23 -18 -36 -7 -21 17 -20 25 7 38 29 14 34 14 43 1z
m-326 -158 c0 -6 -4 -13 -10 -16 -5 -3 -10 1 -10 9 0 9 5 16 10 16 6 0 10 -4
10 -9z m60 -95 c-6 -8 -19 -12 -27 -9 -14 6 -14 8 3 14 30 12 37 10 24 -5z
m10 -87 c0 -13 -24 -11 -45 4 -16 13 -15 14 13 9 18 -2 32 -8 32 -13z m-755
-108 c-6 -5 -39 -21 -75 -35 -35 -15 -77 -38 -92 -53 -21 -20 -28 -23 -28 -11
0 9 7 21 15 28 9 7 14 19 11 25 -3 8 16 19 52 30 31 9 62 18 67 20 23 8 59 5
50 -4z m227 -113 c-7 -7 -12 -8 -12 -2 0 14 12 26 19 19 2 -3 -1 -11 -7 -17z
m6 -25 c-7 -9 -22 -26 -34 -38 -12 -12 -23 -27 -26 -35 -2 -7 -9 -11 -15 -9
-18 6 44 95 68 96 18 2 19 0 7 -14z m270 -31 c2 -7 -3 -12 -12 -12 -9 0 -16 7
-16 16 0 17 22 14 28 -4z m-203 -72 c3 -5 -1 -10 -10 -10 -9 0 -13 5 -10 10 3
6 8 10 10 10 2 0 7 -4 10 -10z m-223 -140 c-9 -22 -18 -34 -20 -26 -4 18 16
66 27 66 5 0 2 -18 -7 -40z"/>
<path d="M5475 3786 c-61 -59 -81 -72 -108 -67 -5 1 -6 -3 -2 -9 8 -13 -44
-56 -62 -52 -8 2 -10 -3 -7 -12 4 -10 -5 -22 -23 -34 -53 -35 -326 -292 -318
-301 9 -9 175 84 171 95 -7 18 15 34 45 34 17 0 38 12 60 34 18 19 37 32 41
30 4 -3 8 6 8 19 0 31 26 55 42 39 13 -13 -35 -64 -201 -207 -78 -67 -115 -94
-121 -85 -6 9 -11 9 -27 -1 -18 -11 -19 -14 -6 -40 8 -16 19 -29 24 -29 5 0 9
-6 9 -13 0 -7 16 -28 35 -47 30 -30 41 -34 78 -31 23 1 62 13 87 25 25 13 64
27 88 31 26 4 41 12 39 18 -5 17 -45 21 -63 6 -8 -6 -18 -9 -22 -5 -4 4 0 13
9 19 8 7 18 20 22 31 6 15 10 16 22 6 18 -15 42 1 56 35 8 20 8 20 15 -2 7
-24 15 -28 28 -15 4 4 11 7 14 8 37 6 72 18 72 24 0 13 -36 18 -54 8 -10 -6
-21 -7 -24 -3 -4 4 1 11 11 16 9 6 17 16 17 24 0 10 11 13 42 10 24 -2 52 1
63 9 11 6 39 18 63 24 54 16 56 37 2 29 -22 -3 -40 -1 -40 4 0 5 5 9 10 9 6 0
10 6 10 14 0 21 20 30 33 17 6 -6 20 -11 32 -11 28 0 124 70 131 96 3 13 -7
43 -27 80 -35 65 -45 75 -66 67 -11 -4 -12 1 -8 20 7 25 -29 107 -46 107 -4 0
-14 7 -22 15 -8 7 -26 17 -40 20 -21 6 -35 -4 -92 -59z m163 -86 c12 -16 22
-36 22 -44 0 -18 -78 -81 -88 -71 -6 6 2 14 52 50 18 13 18 15 -3 49 -20 31
-25 34 -42 23 -10 -6 -19 -15 -19 -19 0 -5 -4 -8 -10 -8 -18 0 -10 15 18 32
38 23 45 22 70 -12z m-178 -35 c0 -8 -7 -15 -15 -15 -8 0 -15 7 -15 15 0 8 7
15 15 15 8 0 15 -7 15 -15z m70 -66 c0 -6 -4 -7 -10 -4 -5 3 -10 11 -10 16 0
6 5 7 10 4 6 -3 10 -11 10 -16z m205 -29 c-3 -5 -11 -10 -16 -10 -6 0 -7 5 -4
10 3 6 11 10 16 10 6 0 7 -4 4 -10z m-175 -70 c0 -11 -2 -20 -4 -20 -2 0 -11
-3 -20 -6 -11 -4 -16 0 -16 13 0 23 8 33 27 33 7 0 13 -9 13 -20z m90 -36 c0
-8 -5 -12 -10 -9 -6 4 -8 11 -5 16 9 14 15 11 15 -7z m-250 -74 c0 -11 -4 -20
-9 -20 -11 0 -22 26 -14 34 12 12 23 5 23 -14z m120 -15 c0 -8 -4 -15 -10 -15
-5 0 -10 7 -10 15 0 8 5 15 10 15 6 0 10 -7 10 -15z m-231 -29 c-2 -2 -15 -7
-29 -10 l-25 -7 25 15 c21 12 42 14 29 2z m-79 -36 c0 -9 -70 -50 -85 -50 -15
0 9 22 43 40 44 23 42 22 42 10z m30 -25 c0 -8 -4 -15 -10 -15 -5 0 -10 7 -10
15 0 8 5 15 10 15 6 0 10 -7 10 -15z m-60 -44 c0 -15 -91 -72 -108 -69 -32 6
-22 27 18 39 23 7 44 19 47 26 6 15 43 18 43 4z m45 -60 c3 -5 1 -12 -5 -16
-5 -3 -10 1 -10 9 0 18 6 21 15 7z"/>
<path d="M2829 3812 c-26 -11 -103 -81 -97 -88 4 -3 25 13 47 35 46 46 80 52
131 26 32 -17 42 -7 12 11 -25 16 -74 24 -93 16z"/>
<path d="M5430 3789 c0 -5 5 -7 10 -4 6 3 10 8 10 11 0 2 -4 4 -10 4 -5 0 -10
-5 -10 -11z"/>
<path d="M2820 3743 c-31 -12 -60 -47 -60 -75 0 -38 14 -36 25 5 11 35 45 48
71 26 13 -10 17 -10 24 0 5 9 9 10 14 2 8 -12 26 -6 26 9 0 30 -57 49 -100 33z"/>
<path d="M2632 3475 c-23 -48 -20 -75 8 -75 22 0 35 16 20 25 -13 8 -13 52 0
60 12 7 13 35 2 35 -4 0 -18 -20 -30 -45z"/>
<path d="M2798 3483 c7 -3 16 -2 19 1 4 3 -2 6 -13 5 -11 0 -14 -3 -6 -6z"/>
<path d="M4011 3453 c-5 -10 -12 -16 -16 -15 -14 8 -74 -46 -135 -121 -36 -45
-81 -97 -101 -117 l-35 -36 -95 7 c-52 4 -104 5 -117 2 -15 -3 -46 6 -86 26
-59 31 -65 32 -104 19 -30 -9 -41 -17 -37 -28 4 -8 -5 -4 -19 9 -15 14 -26 33
-26 43 0 10 -4 18 -10 18 -5 0 -10 -7 -10 -16 0 -8 -5 -12 -10 -9 -6 4 -8 10
-5 15 3 5 -2 16 -11 25 -25 25 -41 3 -20 -29 9 -14 16 -34 16 -46 0 -11 5 -20
11 -20 5 0 8 4 5 9 -3 5 1 14 8 20 22 19 31 -7 9 -27 -11 -11 -19 -33 -20 -62
-2 -44 -2 -44 9 -15 6 17 19 41 29 54 18 22 19 22 19 4 0 -11 7 -26 15 -33 11
-9 15 -10 15 -1 0 19 30 45 40 35 4 -5 20 -31 34 -58 14 -27 31 -55 37 -62 6
-7 8 -18 5 -23 -4 -6 3 -15 14 -21 13 -7 20 -21 20 -39 0 -39 19 -54 45 -35
15 11 17 18 9 32 -14 21 -38 121 -31 128 2 3 12 -3 21 -13 84 -90 100 -103
109 -88 4 8 5 20 2 25 -4 6 6 10 22 10 16 0 35 6 42 13 11 10 13 8 8 -12 -3
-13 -2 -31 3 -40 20 -38 59 -128 65 -151 11 -37 78 -122 148 -185 94 -85 127
-119 125 -130 -1 -5 6 -25 16 -44 l18 -33 33 32 c31 30 33 34 19 55 -18 28 -8
38 20 20 21 -14 26 -11 84 45 34 33 62 64 62 69 0 5 -17 0 -39 -11 -55 -27
-106 -33 -152 -18 -40 14 -49 27 -25 36 8 3 22 17 32 31 l17 26 -30 -21 c-29
-20 -43 -20 -43 1 0 5 6 7 12 5 14 -5 38 15 38 31 0 17 18 13 29 -6 9 -15 10
-14 11 10 0 16 6 27 13 27 8 0 25 10 38 21 l24 22 -48 -7 c-27 -3 -74 -20
-105 -37 -91 -50 -189 -41 -249 23 -28 30 -67 110 -83 171 -16 58 1 127 30
127 10 0 24 7 31 17 8 9 29 22 47 30 29 12 35 12 48 -2 17 -17 39 -21 29 -5
-3 6 0 10 8 10 28 0 116 33 111 41 -7 12 -44 11 -44 0 0 -5 -9 -7 -20 -4 -16
4 -18 9 -9 19 23 27 51 27 73 0 19 -24 23 -26 48 -14 16 7 28 16 28 21 0 4 7
7 15 7 8 0 15 5 15 10 0 6 -6 10 -14 10 -8 0 -21 3 -30 6 -10 4 -16 1 -16 -10
0 -10 -6 -13 -15 -10 -8 4 -15 1 -15 -6 0 -6 -5 -8 -10 -5 -8 5 -7 11 1 21 16
20 2 31 -21 16 -28 -17 -49 -14 -25 4 20 15 20 15 -4 35 l-23 19 25 34 c41 53
78 124 68 131 -6 3 -14 -3 -20 -12z m-591 -264 c0 -5 14 -15 31 -21 20 -7 28
-15 25 -25 -3 -8 -6 -18 -6 -23 0 -4 -11 -7 -25 -7 -14 0 -25 3 -25 8 0 5 5 9
11 9 6 0 1 12 -10 26 -23 29 -27 44 -11 44 6 0 10 -5 10 -11z m190 -84 c0 -19
5 -25 23 -25 18 0 19 2 7 10 -13 8 -12 10 3 10 9 0 17 -4 17 -10 0 -5 0 -13 0
-17 0 -4 -13 -8 -30 -9 -16 -1 -30 3 -30 9 0 6 -8 3 -17 -5 -23 -20 -63 -29
-63 -15 0 6 -8 19 -17 30 -15 15 -15 19 -3 16 14 -2 31 3 75 21 31 13 35 12
35 -15z m355 -435 c3 -5 1 -10 -4 -10 -6 0 -11 5 -11 10 0 6 2 10 4 10 3 0 8
-4 11 -10z"/>
<path d="M2690 3449 c-19 -8 -21 -12 -11 -19 16 -9 63 8 55 21 -6 11 -12 11
-44 -2z"/>
<path d="M2877 3393 c-3 -5 5 -9 16 -10 12 -1 31 -4 41 -5 10 -2 21 3 23 10 5
13 -72 18 -80 5z"/>
<path d="M2682 3354 c-23 -14 -42 -28 -42 -32 0 -4 -3 -17 -6 -29 -5 -18 -1
-25 20 -33 16 -6 24 -15 20 -24 -4 -9 5 -20 23 -30 27 -14 31 -13 46 4 20 24
10 55 -18 55 -30 0 -30 33 -1 58 21 19 23 25 12 39 -11 16 -15 15 -54 -8z"/>
<path d="M4160 3300 c-8 -6 -37 -10 -64 -10 -58 0 -57 -5 2 -18 35 -8 46 -7
65 8 24 20 21 35 -3 20z"/>
<path d="M4954 3285 c-10 -8 -14 -15 -8 -15 5 0 19 7 30 15 10 8 14 15 8 15
-5 0 -19 -7 -30 -15z"/>
<path d="M4790 3269 c0 -33 37 -70 50 -49 6 10 3 18 -10 27 -11 8 -24 21 -29
31 -9 14 -10 13 -11 -9z"/>
<path d="M4751 3116 c-92 -92 -93 -94 -77 -117 20 -29 21 -45 1 -29 -8 7 -15
19 -15 26 0 23 -14 16 -60 -31 l-44 -45 22 -46 c30 -61 20 -70 -10 -10 l-24
46 -44 -45 c-50 -50 -50 -43 17 -164 l35 -63 39 38 c21 21 42 35 45 31 4 -4
-33 -48 -82 -99 -172 -178 -219 -229 -222 -242 -1 -7 7 -21 19 -32 21 -19 21
-19 70 9 27 15 57 27 67 27 16 0 148 -55 299 -126 98 -45 213 -23 245 48 33
70 41 115 42 232 l1 121 -44 83 c-32 61 -48 82 -63 82 -11 0 -22 8 -25 18 -2
10 -28 29 -56 42 -61 28 -95 61 -119 112 -15 34 -15 37 1 52 27 24 38 20 71
-26 57 -80 91 -117 113 -124 12 -3 29 -15 38 -26 21 -27 40 -16 78 44 30 48
40 96 27 136 -9 26 -23 28 -46 7 -23 -21 -37 -13 -95 54 -27 33 -60 64 -72 70
-13 6 -23 17 -23 26 0 8 -3 15 -7 15 -5 0 -50 -42 -102 -94z m186 -35 c37 -25
65 -53 76 -75 11 -23 24 -36 36 -36 27 0 33 -14 20 -44 -13 -27 -35 -37 -25
-11 7 20 -3 45 -19 45 -7 0 -15 6 -18 13 -3 9 -7 9 -20 -1 -22 -19 -53 -7 -91
35 -45 51 -60 78 -53 97 10 25 29 20 94 -23z m-170 -158 c16 -21 33 -50 36
-65 6 -23 5 -27 -10 -21 -46 16 -89 77 -77 108 9 23 18 19 51 -22z m-17 -231
c0 -34 -38 -38 -68 -9 l-25 25 29 25 28 24 18 -22 c10 -13 18 -32 18 -43z
m-94 -97 c-11 -8 -25 -15 -30 -15 -6 0 -2 7 8 15 11 8 25 15 30 15 6 0 2 -7
-8 -15z"/>
<path d="M4305 3170 c-3 -5 -1 -18 4 -27 9 -16 10 -14 11 10 0 28 -5 34 -15
17z"/>
<path d="M5335 3150 c-4 -6 5 -10 19 -10 14 0 26 5 26 10 0 6 -9 10 -19 10
-11 0 -23 -4 -26 -10z"/>
<path d="M4185 3140 c-3 -5 -14 -10 -23 -10 -9 0 -25 -14 -34 -30 -9 -17 -24
-30 -31 -30 -8 0 -17 -10 -21 -22 -3 -13 -5 -23 -4 -23 1 0 -4 -10 -11 -22
-10 -19 -9 -23 4 -23 9 0 13 -4 10 -10 -3 -5 -15 -10 -26 -10 -10 0 -19 -5
-19 -10 0 -6 -10 -8 -24 -4 -19 4 -25 1 -30 -20 -5 -22 -9 -24 -31 -16 -19 7
-25 6 -25 -4 0 -8 15 -17 33 -20 42 -8 93 12 142 55 30 27 39 30 59 21 14 -6
28 -7 37 -1 20 13 97 11 101 -2 2 -7 24 -12 48 -12 27 0 37 -3 27 -6 -16 -6
-17 -9 -5 -19 22 -18 74 -26 82 -13 4 6 1 11 -8 11 -8 0 -26 11 -40 25 -14 14
-33 25 -42 25 -16 0 -16 1 1 14 18 13 18 14 -6 22 -13 4 -28 7 -32 6 -5 -1 -6
2 -2 8 3 5 3 10 -2 11 -39 4 -69 12 -71 19 -2 4 -11 6 -22 3 -25 -7 -37 32
-15 53 12 12 13 19 4 30 -14 17 -16 17 -24 4z m-10 -120 c13 -6 15 -9 5 -9 -8
0 -22 4 -30 9 -18 12 -2 12 25 0z m-45 -24 c0 -11 -19 -15 -25 -6 -3 5 1 10 9
10 9 0 16 -2 16 -4z"/>
<path d="M3226 3104 c-3 -8 -2 -12 4 -9 5 3 21 -2 35 -11 14 -9 25 -12 25 -6
0 9 -42 42 -54 42 -2 0 -7 -7 -10 -16z"/>
<path d="M4406 3048 c40 -101 44 -111 50 -105 8 8 -46 144 -62 158 -6 5 -1
-19 12 -53z"/>
<path d="M6000 3060 c0 -29 4 -40 15 -40 11 0 15 11 15 40 0 29 -4 40 -15 40
-11 0 -15 -11 -15 -40z"/>
<path d="M3747 3063 c-3 -3 -2 -13 2 -22 16 -33 59 -127 75 -163 9 -20 16 -51
16 -69 0 -46 8 -32 14 24 2 27 0 47 -6 47 -6 0 -7 13 -3 31 5 20 4 29 -3 25
-10 -6 -43 53 -56 101 -7 21 -29 36 -39 26z"/>
<path d="M4228 2943 c12 -2 30 -2 40 0 9 3 -1 5 -23 4 -22 0 -30 -2 -17 -4z"/>
<path d="M3220 2930 c8 -5 22 -9 30 -9 10 0 8 3 -5 9 -27 12 -43 12 -25 0z"/>
<path d="M3647 2923 c-4 -3 -7 -11 -7 -17 0 -6 5 -5 12 2 6 6 9 14 7 17 -3 3
-9 2 -12 -2z"/>
<path d="M4395 2875 c-22 -7 -61 -10 -86 -8 -56 6 -175 -13 -209 -33 -15 -10
-18 -13 -6 -9 40 12 163 25 226 22 63 -2 130 16 130 34 0 11 -4 10 -55 -6z"/>
<path d="M3418 2840 c-53 -17 -79 -37 -33 -25 17 4 56 13 88 20 32 7 60 15 63
18 11 10 -74 1 -118 -13z"/>
<path d="M4402 2768 c-40 -38 -51 -58 -34 -58 4 0 13 -15 20 -32 7 -18 26 -55
43 -82 l31 -49 40 40 40 41 -25 43 c-14 24 -36 65 -49 91 l-25 47 -41 -41z
m53 -77 c3 -5 1 -12 -5 -16 -5 -3 -10 1 -10 9 0 18 6 21 15 7z"/>
<path d="M3465 2775 c-16 -8 -44 -14 -61 -15 -17 0 -38 -8 -45 -17 -8 -9 -9
-14 -2 -10 6 4 14 1 16 -5 4 -10 6 -10 6 0 1 6 11 12 23 12 32 0 87 22 92 37
3 7 4 13 3 12 -1 0 -15 -7 -32 -14z"/>
<path d="M4190 2780 c0 -5 7 -7 15 -4 8 4 15 8 15 10 0 2 -7 4 -15 4 -8 0 -15
-4 -15 -10z"/>
<path d="M4265 2760 c3 -5 16 -10 28 -9 21 0 21 1 2 9 -28 12 -37 12 -30 0z"/>
<path d="M4187 2740 c5 -20 15 -25 26 -13 8 7 -11 33 -23 33 -5 0 -6 -9 -3
-20z"/>
<path d="M4302 2677 l-33 -34 47 -84 c25 -46 50 -88 54 -92 4 -5 24 8 43 29
l35 39 -40 70 c-22 38 -42 78 -45 88 -8 25 -25 21 -61 -16z"/>
<path d="M3335 2639 c-11 -17 1 -21 15 -4 8 9 8 15 2 15 -6 0 -14 -5 -17 -11z"/>
<path d="M4222 2597 l-33 -34 48 -91 c26 -51 52 -92 58 -92 6 0 24 13 40 30
l28 29 -32 58 c-17 32 -39 75 -49 96 -9 20 -19 37 -22 37 -4 0 -21 -15 -38
-33z m58 -87 c0 -5 -5 -10 -11 -10 -5 0 -7 5 -4 10 3 6 8 10 11 10 2 0 4 -4 4
-10z"/>
<path d="M4145 2520 l-29 -31 47 -94 c26 -52 51 -95 55 -95 5 0 21 14 37 30
25 26 28 33 17 48 -7 9 -29 52 -50 94 -20 42 -40 77 -43 78 -3 0 -18 -14 -34
-30z"/>
<path d="M2208 2495 c-46 -31 -59 -50 -27 -40 45 14 93 40 97 53 6 20 -30 13
-70 -13z"/>
<path d="M4040 2419 c-44 -41 -61 -62 -56 -74 5 -15 7 -15 22 -1 22 22 31 20
11 -2 -10 -10 -17 -23 -17 -27 0 -15 73 -165 80 -165 4 0 17 11 30 25 l24 26
-47 92 c-50 97 -57 120 -32 111 8 -4 12 -10 9 -15 -5 -8 59 -145 77 -163 5 -6
18 -1 33 13 24 23 41 61 26 61 -4 0 -28 40 -52 88 l-44 88 -64 -57z m86 -76
c-10 -10 -19 5 -10 18 6 11 8 11 12 0 2 -7 1 -15 -2 -18z"/>
<path d="M2236 2446 c-3 -14 -27 -36 -61 -57 -52 -31 -68 -49 -45 -49 6 0 10
4 10 9 0 5 15 14 33 21 50 20 97 59 97 81 0 27 -27 24 -34 -5z"/>
<path d="M2367 2459 c-14 -8 -17 -18 -12 -39 6 -25 3 -30 -19 -36 -13 -3 -32
-14 -42 -25 -11 -12 -24 -17 -36 -13 -12 3 -18 0 -18 -10 0 -9 -7 -16 -15 -16
-18 0 -86 -46 -79 -53 7 -6 56 10 64 22 3 4 23 16 45 27 76 38 124 73 123 91
-1 10 2 28 6 41 8 25 8 25 -17 11z"/>
<path d="M2265 2390 c-3 -5 -1 -10 4 -10 6 0 11 5 11 10 0 6 -2 10 -4 10 -3 0
-8 -4 -11 -10z"/>
<path d="M2085 2330 c-11 -12 -31 -20 -52 -20 -30 0 -50 -20 -20 -20 6 0 1 -9
-12 -19 -31 -24 -32 -61 -3 -157 25 -81 47 -113 97 -143 l35 -20 -6 23 c-3 13
-1 40 4 59 9 33 7 37 -27 71 -21 20 -40 34 -43 31 -3 -3 -11 9 -19 27 -10 25
-10 33 -1 36 35 11 70 53 68 81 -1 16 -5 33 -9 37 -4 4 -2 13 4 21 18 21 4 15
-16 -7z"/>
<path d="M2190 2340 c0 -5 5 -10 11 -10 5 0 7 5 4 10 -3 6 -8 10 -11 10 -2 0
-4 -4 -4 -10z"/>
<path d="M2339 2335 c-5 -37 23 -81 43 -69 12 8 9 44 -3 44 -7 0 -18 8 -25 18
-7 9 -14 13 -15 7z"/>
<path d="M3932 2317 l-21 -23 50 -104 c28 -58 53 -107 55 -109 3 -3 16 6 30
20 l25 26 -53 106 c-29 59 -55 107 -59 107 -3 0 -15 -10 -27 -23z"/>
<path d="M2120 2320 c0 -13 18 -22 24 -11 3 5 -1 11 -9 15 -8 3 -15 1 -15 -4z"/>
<path d="M2322 2280 c0 -14 2 -19 5 -12 2 6 2 18 0 25 -3 6 -5 1 -5 -13z"/>
<path d="M2280 2265 c7 -8 17 -15 22 -15 6 0 5 7 -2 15 -7 8 -17 15 -22 15 -6
0 -5 -7 2 -15z"/>
<path d="M3872 2255 l-20 -26 54 -109 c29 -61 56 -110 58 -110 3 0 14 14 26
30 15 21 19 34 12 43 -6 7 -27 45 -47 85 -37 74 -37 74 -58 55 -22 -18 -22
-18 -4 3 18 22 23 54 8 54 -5 0 -19 -11 -29 -25z m68 -94 c0 -12 -20 -25 -27
-18 -7 7 6 27 18 27 5 0 9 -4 9 -9z"/>
<path d="M2276 2217 c3 -10 9 -15 12 -12 3 3 0 11 -7 18 -10 9 -11 8 -5 -6z"/>
<path d="M3815 2200 c-10 -11 -15 -26 -11 -36 6 -15 8 -15 29 2 l22 19 -19
-22 c-12 -15 -16 -28 -11 -40 5 -10 9 -23 10 -28 2 -6 18 -41 37 -78 l34 -68
22 24 23 25 -50 99 c-28 55 -51 105 -51 111 0 18 -15 15 -35 -8z"/>
<path d="M4159 2193 c-14 -16 -35 -41 -47 -56 -11 -15 -23 -28 -26 -28 -3 1
-56 -53 -117 -120 l-112 -120 24 -47 c13 -26 31 -69 40 -97 24 -68 24 -32 0
46 -30 102 -34 132 -10 80 11 -25 24 -61 29 -80 5 -20 16 -61 25 -91 8 -30 15
-75 15 -101 0 -46 1 -47 36 -54 38 -7 166 -5 197 3 24 6 22 51 -9 157 l-26 89
36 33 c20 19 36 44 36 56 0 16 -3 18 -12 9 -14 -14 -68 -16 -68 -2 0 6 -7 10
-15 10 -14 0 -35 37 -35 61 0 18 18 9 25 -13 6 -19 8 -20 12 -6 4 15 8 14 28
-10 22 -25 24 -25 18 -4 -3 12 -1 22 5 22 5 0 13 -10 17 -22 4 -15 8 -19 12
-10 3 8 0 19 -6 25 -7 7 -11 50 -11 108 0 119 -9 189 -24 189 -7 0 -24 -12
-37 -27z"/>
<path d="M3513 2137 c-42 -42 -53 -61 -53 -85 0 -18 5 -32 10 -32 6 0 10 3 10
8 0 4 21 31 46 60 38 44 51 52 80 52 37 0 44 15 17 36 -31 24 -55 15 -110 -39z"/>
<path d="M3762 2148 c-7 -7 -12 -18 -12 -25 0 -24 98 -223 110 -223 6 0 15 10
21 23 8 19 2 40 -41 130 -29 59 -55 107 -59 107 -4 0 -12 -5 -19 -12z"/>
<path d="M3430 2104 c0 -8 5 -12 10 -9 6 4 8 11 5 16 -9 14 -15 11 -15 -7z"/>
<path d="M3640 2094 c0 -14 4 -23 10 -19 6 3 10 15 10 26 0 10 -4 19 -10 19
-5 0 -10 -12 -10 -26z"/>
<path d="M3712 2098 c-15 -15 -16 -45 -2 -53 6 -3 10 0 10 8 0 8 7 20 15 27 8
7 12 16 9 21 -7 12 -18 11 -32 -3z"/>
<path d="M3731 2046 c-12 -21 -9 -33 29 -110 23 -47 45 -86 48 -86 3 0 13 7
22 15 15 14 13 22 -29 109 -25 52 -49 95 -52 95 -3 1 -11 -10 -18 -23z m79
-141 c0 -8 -4 -15 -10 -15 -5 0 -10 7 -10 15 0 8 5 15 10 15 6 0 10 -7 10 -15z"/>
<path d="M3641 2025 c-22 -23 -31 -40 -27 -51 5 -13 9 -14 21 -4 8 7 15 19 15
26 0 8 5 14 10 14 6 0 10 -6 10 -13 0 -7 20 -54 45 -106 44 -89 47 -93 65 -76
18 16 17 18 -16 77 -19 33 -34 63 -34 68 0 14 -41 100 -48 100 -4 0 -22 -16
-41 -35z"/>
<path d="M3410 2029 c0 -19 -69 -98 -98 -113 -15 -7 -33 -11 -39 -9 -18 6 -16
-12 2 -27 23 -19 59 -4 106 45 54 57 59 66 52 93 -6 23 -23 31 -23 11z"/>
<path d="M3240 1958 c0 -30 1 -31 16 -16 9 9 14 24 11 32 -11 27 -27 17 -27
-16z"/>
<path d="M3642 1968 c-15 -15 -16 -48 -1 -48 5 0 8 -4 5 -8 -2 -4 -1 -14 5
-22 6 -10 9 -11 9 -2 0 6 7 12 15 12 19 0 18 7 -3 48 -14 25 -20 30 -30 20z"/>
<path d="M3581 1961 c-8 -6 -11 -16 -7 -27 6 -16 8 -16 23 -1 20 19 6 41 -16
28z"/>
<path d="M2360 1940 c8 -5 33 -9 55 -9 39 1 39 2 10 9 -16 4 -41 8 -55 9 -20
0 -22 -1 -10 -9z"/>
<path d="M2720 1926 c0 -13 -3 -32 -7 -42 -4 -12 -2 -15 8 -12 15 5 22 65 8
74 -5 3 -9 -6 -9 -20z"/>
<path d="M3535 1909 c-4 -11 -4 -23 -1 -26 8 -9 38 26 31 37 -10 16 -23 12
-30 -11z"/>
<path d="M3594 1908 c-4 -13 -2 -24 5 -26 6 -2 11 -12 11 -23 0 -10 7 -19 15
-19 8 0 12 -6 9 -14 -3 -8 6 -37 21 -65 22 -45 28 -50 40 -37 13 13 11 22 -18
73 -18 32 -41 75 -50 96 -21 43 -23 44 -33 15z"/>
<path d="M3504 1876 c-8 -22 3 -33 18 -18 9 9 9 15 0 24 -9 9 -13 7 -18 -6z"/>
<path d="M3680 1875 c-11 -14 -9 -24 11 -65 26 -53 27 -54 48 -41 12 8 11 15
-4 48 -10 21 -23 46 -30 56 -11 16 -13 16 -25 2z"/>
<path d="M3561 1866 c-8 -9 -11 -19 -7 -23 9 -9 29 13 24 27 -2 8 -8 7 -17 -4z"/>
<path d="M3505 1824 c-16 -12 -27 -26 -24 -29 4 -3 12 1 18 9 7 8 18 13 26 10
16 -6 26 8 17 23 -5 7 -17 3 -37 -13z"/>
<path d="M3577 1843 c-4 -3 -7 -15 -7 -26 0 -13 5 -17 16 -13 11 4 14 1 9 -13
-8 -27 4 -50 26 -48 24 2 24 -2 -7 57 -28 54 -27 53 -37 43z"/>
<path d="M3535 1800 c-4 -6 -1 -18 6 -26 9 -11 8 -18 -7 -35 -15 -17 -16 -23
-5 -40 10 -18 10 -23 -6 -35 -15 -12 -12 -12 14 0 17 9 33 21 35 28 3 7 13 -2
22 -21 11 -21 21 -30 27 -24 9 9 -36 104 -53 111 -4 2 -8 12 -8 22 0 22 -16
35 -25 20z m35 -81 c0 -6 -4 -7 -10 -4 -5 3 -10 11 -10 16 0 6 5 7 10 4 6 -3
10 -11 10 -16z"/>
<path d="M3505 1767 c-41 -50 -41 -51 -20 -39 11 6 28 13 37 16 11 3 15 11 12
21 -7 18 -15 19 -29 2z"/>
<path d="M3817 1754 c-11 -11 -8 -44 3 -44 15 0 24 30 13 41 -5 5 -12 6 -16 3z"/>
<path d="M6156 1723 c-8 -23 -28 -56 -46 -78 -19 -22 -88 -14 -109 13 -30 36
-129 55 -172 32 -13 -8 -19 -22 -19 -48 0 -20 -10 -95 -21 -167 -11 -71 -26
-170 -33 -220 -8 -49 -23 -126 -34 -170 -11 -44 -25 -122 -31 -173 -11 -84
-28 -135 -54 -153 -5 -4 -11 -47 -12 -95 -3 -82 -30 -196 -63 -260 -39 -78
-62 -151 -62 -195 0 -19 -7 -54 -15 -78 -9 -24 -18 -63 -22 -87 l-6 -44 752 0
751 0 0 64 c0 42 -4 66 -12 69 -10 4 -10 6 0 6 9 1 12 43 12 176 0 173 0 174
-25 200 -14 14 -30 25 -35 25 -6 0 -10 18 -10 40 0 22 -4 40 -10 40 -5 0 -10
18 -10 40 0 22 -4 40 -9 40 -5 0 -12 18 -16 40 -4 22 -11 40 -16 40 -5 0 -9
18 -9 40 0 22 -4 40 -10 40 -5 0 -10 3 -10 8 0 13 84 42 123 42 l37 0 0 311 0
310 -46 21 c-37 16 -59 19 -108 14 -51 -5 -200 8 -156 13 34 5 -79 31 -133 31
-71 0 -147 18 -154 36 -3 8 -19 14 -38 14 -18 0 -38 7 -45 15 -7 8 -23 15 -35
15 -13 0 -32 11 -43 25 -23 29 -37 32 -46 8z m168 -1328 c3 -9 19 -15 41 -15
l35 0 0 -69 0 -69 43 -6 c117 -15 117 -15 117 -55 0 -35 -2 -38 -47 -54 -61
-22 -113 -23 -113 -2 0 8 -3 15 -7 15 -9 0 -33 49 -33 67 0 7 -9 13 -20 13
-11 0 -20 7 -20 15 0 23 -53 45 -93 38 -20 -3 -47 -3 -61 1 -24 6 -26 11 -26
56 l0 50 43 2 c23 0 52 0 63 -1 12 -1 27 5 34 14 16 19 36 19 44 0z"/>
<path d="M3636 1715 c-3 -9 -2 -23 2 -31 7 -13 10 -13 22 1 11 13 11 18 -2 31
-14 14 -16 14 -22 -1z"/>
<path d="M3851 1665 c-1 -35 -8 -46 -67 -101 -47 -43 -65 -67 -61 -78 11 -29
36 -17 82 42 46 59 60 97 52 148 -3 24 -4 22 -6 -11z"/>
<path d="M3287 1607 c-72 -67 -76 -73 -57 -84 11 -8 17 -19 14 -28 -4 -8 -1
-15 6 -15 6 0 8 5 5 10 -3 6 1 10 10 10 11 0 15 -5 11 -15 -7 -20 8 -19 24 1
8 8 9 14 4 13 -11 -3 -74 33 -74 42 0 4 15 17 33 30 29 20 115 109 106 109 -2
0 -39 -33 -82 -73z"/>
<path d="M3282 1648 c2 -7 -2 -12 -8 -11 -7 1 -19 -6 -29 -17 -16 -18 -16 -18
3 -13 28 7 56 39 42 48 -6 4 -9 1 -8 -7z"/>
<path d="M3030 1620 c-9 -6 -10 -10 -3 -10 6 0 15 5 18 10 8 12 4 12 -15 0z"/>
<path d="M3335 1588 l-40 -42 37 30 c30 24 55 54 45 54 -2 0 -21 -19 -42 -42z"/>
<path d="M2088 1590 c-3 -19 -24 -105 -47 -190 -62 -234 -56 -290 37 -366 69
-56 106 -75 202 -104 41 -12 86 -28 99 -35 25 -13 63 -94 73 -155 8 -47 53
-137 180 -362 38 -67 96 -134 148 -171 33 -23 60 -49 60 -57 1 -17 105 -98
167 -129 36 -18 60 -21 167 -21 116 0 130 2 203 31 145 58 243 116 352 208 78
66 173 181 195 238 11 26 30 62 43 80 19 25 21 32 9 35 -21 4 6 34 69 77 48
31 53 33 128 29 42 -3 80 -7 83 -11 3 -3 0 -23 -6 -43 -10 -28 -10 -39 -1 -42
6 -2 11 -8 11 -13 0 -9 -105 -166 -139 -209 -23 -28 -30 -63 -9 -42 14 14 28
16 28 4 0 -4 -10 -12 -22 -17 -30 -14 -38 -39 -9 -30 13 4 21 2 21 -5 0 -7 -9
-14 -20 -17 -16 -4 -20 -14 -20 -47 -1 -35 -29 -111 -30 -80 0 7 -8 14 -17 18
-10 3 -23 8 -29 11 -7 4 -9 -5 -6 -25 3 -23 0 -30 -12 -30 -18 0 -22 -15 -7
-25 6 -3 15 4 21 15 13 25 47 26 52 3 2 -10 -2 -32 -9 -50 -7 -18 -13 -40 -13
-50 0 -14 6 -11 25 12 13 17 24 35 25 40 0 6 13 26 28 45 16 19 36 49 44 65
28 53 77 198 83 250 4 28 13 60 21 72 8 12 14 28 14 35 1 18 36 58 50 58 9 0
11 -16 6 -63 -8 -73 -50 -261 -72 -321 -8 -22 -24 -72 -36 -111 -12 -38 -28
-76 -37 -83 -12 -10 10 -12 117 -12 l132 0 1 43 c1 72 9 170 19 226 6 30 10
72 10 92 0 58 20 141 33 136 7 -2 10 -18 8 -38 -7 -63 -7 -84 1 -107 5 -13 4
-32 -2 -42 -7 -14 -6 -29 7 -55 14 -29 15 -40 5 -55 -17 -27 -15 -30 13 -30
26 0 27 -1 29 -66 3 -51 24 -104 42 -104 8 0 14 9 14 20 0 33 -49 360 -65 430
-11 52 -102 501 -121 598 -4 22 -34 32 -34 11 0 -5 5 -7 10 -4 6 3 10 -2 10
-12 0 -10 -10 -24 -21 -32 -17 -10 -19 -15 -8 -21 7 -5 18 -5 25 1 8 6 13 -4
18 -38 3 -25 4 -48 2 -50 -10 -10 -51 -11 -63 -2 -10 9 -13 7 -13 -7 -1 -16
-3 -15 -15 6 -8 14 -15 21 -15 15 0 -5 -7 -1 -16 10 -13 17 -16 18 -24 5 -5
-8 -11 -18 -12 -22 -2 -4 -16 -9 -32 -12 -34 -6 -44 -14 -30 -24 17 -11 24
-52 9 -52 -18 0 -26 -25 -12 -39 15 -15 27 -14 27 3 0 7 7 20 17 27 15 13 16
10 10 -35 -4 -27 -7 -55 -7 -62 0 -14 -25 -14 -47 -1 -7 5 -17 6 -21 3 -14 -8
-35 40 -35 76 0 18 -3 35 -6 38 -3 3 -11 15 -18 27 -10 17 -9 24 3 34 14 11
13 14 -8 22 -12 5 -42 9 -65 8 -33 0 -43 4 -43 15 0 10 6 14 14 11 8 -3 27 -2
43 3 26 8 24 8 -17 10 -25 1 -51 2 -59 1 -21 -3 -7 24 15 28 10 2 23 9 27 17
4 8 26 17 48 20 61 10 30 20 -56 18 -53 -1 -80 -6 -86 -15 -6 -9 -9 3 -7 35
l3 48 73 42 c95 54 172 127 172 163 0 7 5 13 11 13 7 0 9 -10 5 -26 -6 -22 -4
-25 10 -20 10 4 21 1 26 -6 5 -9 7 -5 6 11 -4 36 21 38 35 2 6 -17 15 -31 19
-31 13 0 9 13 -12 48 -23 37 -25 46 -9 36 8 -4 9 1 4 17 -10 31 -34 79 -40 79
-3 0 -3 -12 1 -27 4 -22 3 -25 -5 -13 -8 12 -11 12 -11 2 0 -8 -9 -26 -19 -40
l-19 -27 -132 2 c-73 1 -134 3 -136 5 -4 5 15 88 27 113 9 21 8 50 -4 61 -4 4
-7 -8 -7 -27 0 -19 -9 -54 -20 -78 -23 -50 -25 -67 -7 -75 10 -5 10 -7 0 -12
-7 -3 -13 -9 -13 -14 0 -10 -49 -59 -76 -77 -11 -7 -44 -24 -74 -39 -30 -14
-74 -35 -97 -47 -55 -26 -96 -67 -122 -120 -15 -30 -21 -36 -21 -21 0 25 -46
61 -53 41 -3 -9 -9 -9 -25 0 -20 12 -22 9 -37 -39 -8 -28 -15 -63 -15 -77 0
-42 -21 -106 -30 -92 -5 8 -13 0 -23 -26 -9 -21 -25 -49 -36 -63 -20 -25 -20
-25 -38 -5 -10 11 -11 14 -3 7 23 -19 35 -14 16 7 -10 11 -23 18 -29 15 -7 -2
-21 7 -31 21 -10 14 -23 25 -28 25 -5 0 0 -10 12 -22 11 -12 19 -27 19 -32 -3
-27 2 -38 16 -33 8 4 17 2 20 -2 3 -5 -1 -11 -9 -14 -17 -7 -46 23 -46 46 0
11 -5 14 -16 10 -13 -5 -13 -7 -2 -14 10 -7 7 -11 -9 -15 -13 -4 -23 -11 -23
-16 0 -5 10 -7 23 -3 22 6 22 6 1 -7 -12 -7 -19 -19 -17 -25 4 -10 8 -9 20 2
19 20 43 19 43 -1 0 -8 -4 -12 -10 -9 -5 3 -10 1 -10 -4 0 -18 19 -12 32 9 16
26 28 26 28 0 0 -11 -7 -20 -15 -20 -8 0 -15 -6 -15 -13 0 -8 -8 -21 -17 -30
-53 -50 -90 -78 -110 -83 -13 -4 -21 -10 -18 -15 6 -8 -27 -30 -55 -37 -107
-26 -280 56 -348 166 -28 46 -31 62 -11 62 4 0 10 -8 14 -19 8 -25 36 -56 58
-64 10 -4 15 -11 12 -17 -6 -9 8 -15 29 -11 5 1 6 -5 3 -13 -4 -10 2 -20 14
-26 24 -13 39 -5 39 21 0 11 -4 17 -10 14 -5 -3 -10 -1 -10 5 0 6 -4 8 -10 5
-5 -3 -7 0 -5 7 4 9 -5 18 -22 25 l-28 12 28 -6 c16 -3 27 -1 27 6 0 6 -5 11
-11 11 -5 0 -8 4 -4 9 3 5 -4 13 -16 16 -17 6 -19 9 -8 16 11 7 10 9 -3 9 -24
0 -23 17 2 25 11 3 20 11 20 17 0 5 -7 7 -16 4 -18 -7 -54 10 -54 25 0 6 4 8
9 5 5 -3 5 15 0 41 -5 25 -7 48 -5 51 3 2 21 -1 41 -8 22 -7 55 -9 81 -5 32 4
52 2 67 -8 12 -8 52 -24 88 -36 61 -20 68 -20 102 -6 20 8 46 15 57 15 12 0
19 4 16 9 -3 5 1 11 9 15 8 3 15 11 15 19 0 7 11 24 25 37 14 13 25 27 25 31
0 4 -20 19 -45 33 -37 22 -45 32 -45 56 0 16 5 32 10 35 6 3 10 18 9 33 0 22
-2 23 -8 9 -4 -10 -10 -18 -15 -17 -4 0 -15 -14 -25 -32 -12 -25 -23 -34 -48
-36 -21 -2 -34 -10 -38 -23 -7 -20 -22 -24 -43 -10 -7 4 -34 4 -60 1 -26 -4
-52 -5 -59 -3 -19 7 -16 23 5 23 9 0 37 14 61 30 24 17 51 30 58 30 31 0 123
32 117 41 -3 5 3 12 12 16 30 11 119 106 105 111 -7 2 -16 0 -20 -4 -5 -8 -64
-39 -341 -179 -11 -5 -20 -13 -20 -17 0 -5 -6 -8 -14 -8 -7 0 -19 -7 -26 -15
-16 -20 -40 -19 -40 1 0 9 -7 14 -17 12 -10 -2 -18 -10 -18 -18 0 -18 -79 -31
-113 -19 -13 5 -34 9 -48 9 -13 0 -46 11 -73 25 -27 15 -55 23 -65 19 -9 -3
-22 -2 -29 4 -6 5 -34 12 -62 15 -71 8 -215 77 -215 103 0 5 -11 32 -25 59
-13 28 -25 62 -25 77 0 14 -6 28 -12 31 -15 5 28 57 47 57 13 0 39 54 54 115
12 43 6 51 -41 61 -17 4 -28 14 -30 28 -3 15 -6 11 -10 -14z m992 -454 c0 -3
-4 -8 -10 -11 -5 -3 -10 -1 -10 4 0 6 5 11 10 11 6 0 10 -2 10 -4z m-250 -126
c0 -5 -2 -10 -4 -10 -3 0 -8 5 -11 10 -3 6 -1 10 4 10 6 0 11 -4 11 -10z m295
-24 c-16 -24 -35 -35 -35 -19 0 10 43 54 48 49 2 -2 -4 -16 -13 -30z m818 -10
c4 -10 0 -14 -12 -13 -11 1 -17 7 -14 14 7 17 20 17 26 -1z m-758 -14 l23 -18
-31 -25 c-17 -13 -41 -24 -53 -25 -12 -1 -30 -8 -39 -17 -26 -27 -28 -20 -3
13 12 17 24 30 28 30 3 0 14 14 23 30 21 35 22 35 52 12z m-135 -18 c0 -11
-15 -14 -63 -14 -86 0 -93 13 -15 25 69 12 78 11 78 -11z m900 -34 c-8 -5 -23
-7 -33 -4 -10 3 -24 0 -32 -6 -8 -7 -15 -8 -15 -4 0 13 39 36 50 29 5 -3 12 0
15 6 5 8 10 8 19 -1 8 -8 7 -13 -4 -20z m-1252 -42 c2 -10 -6 -19 -18 -23 -28
-9 -34 -2 -20 25 13 23 33 22 38 -2z m-98 -9 c0 -5 -4 -9 -10 -9 -5 0 -10 7
-10 16 0 8 5 12 10 9 6 -3 10 -10 10 -16z m867 -49 c-11 -36 -23 -57 -25 -48
-3 15 37 122 44 116 1 -2 -7 -32 -19 -68z m515 48 c-7 -7 -12 -8 -12 -2 0 14
12 26 19 19 2 -3 -1 -11 -7 -17z m441 -5 c-5 -12 -7 -12 -14 -1 -13 20 -11 28
5 22 8 -3 12 -12 9 -21z m-120 -10 c12 -62 12 -68 -3 -68 -8 0 -15 10 -16 22
-1 12 -4 29 -8 38 -3 9 -4 21 0 26 10 17 22 9 27 -18z m76 -25 c1 -5 -3 -8 -9
-8 -5 0 -10 12 -9 28 0 24 1 25 9 7 5 -11 9 -23 9 -27z m26 -48 c7 0 15 -15
17 -35 5 -41 0 -49 -18 -34 -8 7 -19 7 -31 1 -16 -9 -18 -6 -17 21 3 57 4 59
20 53 9 -3 22 -6 29 -6z m-1175 -20 c0 -5 -2 -10 -4 -10 -3 0 -8 5 -11 10 -3
6 -1 10 4 10 6 0 11 -4 11 -10z m45 -41 c11 -17 -1 -21 -15 -4 -8 9 -8 15 -2
15 6 0 14 -5 17 -11z m-714 -46 c-8 -15 -10 -15 -11 -2 0 17 10 32 18 25 2 -3
-1 -13 -7 -23z m1726 -19 c-9 -9 -28 6 -21 18 4 6 10 6 17 -1 6 -6 8 -13 4
-17z m-927 -109 c-12 -26 -24 -45 -26 -42 -3 2 5 25 17 51 30 59 37 52 9 -9z
m-130 -200 c-18 -19 -35 -33 -38 -31 -2 3 11 20 29 40 19 19 36 33 38 30 3 -2
-11 -20 -29 -39z m-93 -90 c-21 -19 -43 -35 -50 -35 -7 0 -3 6 8 12 11 7 28
22 38 35 10 13 24 23 30 23 7 0 -5 -16 -26 -35z m-367 5 c0 -5 -2 -10 -4 -10
-3 0 -8 5 -11 10 -3 6 -1 10 4 10 6 0 11 -4 11 -10z"/>
<path d="M3116 1597 c3 -10 9 -15 12 -12 3 3 0 11 -7 18 -10 9 -11 8 -5 -6z"/>
<path d="M3389 1583 c-13 -16 -12 -17 3 -5 9 8 23 10 29 6 8 -4 9 -3 5 4 -10
17 -21 15 -37 -5z"/>
<path d="M2666 1488 c-17 -26 -28 -57 -29 -78 0 -19 -5 -41 -11 -49 -8 -11 -8
-13 2 -7 8 5 12 -1 12 -19 0 -15 4 -24 10 -20 6 4 8 10 5 15 -2 4 4 19 15 33
22 28 26 48 8 45 -16 -4 -16 31 0 65 13 28 28 38 18 11 -3 -8 -2 -12 4 -9 12
7 13 55 2 55 -5 0 -21 -19 -36 -42z"/>
<path d="M3337 1476 c-4 -10 -1 -13 8 -9 8 3 12 9 9 14 -7 12 -11 11 -17 -5z"/>
<path d="M3628 1421 c-42 -46 -69 -105 -68 -147 1 -11 9 -1 22 25 12 25 43 60
72 83 58 46 63 53 46 73 -18 22 -24 19 -72 -34z"/>
<path d="M3287 1439 c7 -7 15 -10 18 -7 3 3 -2 9 -12 12 -14 6 -15 5 -6 -5z"/>
<path d="M3130 1310 c-25 -10 -60 -26 -77 -37 -17 -10 -57 -33 -89 -52 -32
-19 -53 -36 -47 -38 15 -5 108 42 153 77 19 14 50 32 68 40 18 7 35 17 38 21
3 5 4 9 2 8 -2 -1 -23 -9 -48 -19z"/>
<path d="M2607 1313 c-4 -3 -7 -11 -7 -17 0 -6 5 -5 12 2 6 6 9 14 7 17 -3 3
-9 2 -12 -2z"/>
<path d="M4220 1251 c0 -6 5 -13 10 -16 13 -8 13 -35 0 -35 -6 0 -15 11 -20
25 -5 14 -16 25 -24 25 -19 0 -11 -25 23 -68 18 -24 26 -28 36 -19 7 7 11 16
8 21 -3 4 0 12 8 16 10 7 10 14 1 34 -11 25 -42 37 -42 17z"/>
<path d="M3320 1230 c0 -5 5 -10 11 -10 5 0 7 5 4 10 -3 6 -8 10 -11 10 -2 0
-4 -4 -4 -10z"/>
<path d="M3592 1216 c2 -15 8 -26 13 -26 15 0 12 43 -3 48 -10 3 -13 -4 -10
-22z"/>
<path d="M4292 1215 c6 -14 13 -23 16 -21 7 7 -9 46 -18 46 -5 0 -4 -11 2 -25z"/>
<path d="M4150 1211 c0 -25 6 -27 13 -6 4 8 2 17 -3 20 -6 4 -10 -3 -10 -14z"/>
<path d="M3267 1182 c-19 -20 -23 -37 -7 -27 6 4 7 -1 3 -11 -4 -12 -2 -15 8
-12 8 3 13 15 12 27 -2 11 2 21 7 21 6 0 10 5 10 10 0 16 -15 12 -33 -8z"/>
<path d="M4100 1180 c-13 -8 -13 -10 2 -10 25 0 30 -15 16 -47 -6 -15 -12 -32
-12 -38 -1 -5 -21 -11 -46 -13 -25 -2 -49 -8 -55 -14 -13 -13 111 0 139 14 19
10 19 11 1 24 -13 10 -16 17 -8 25 7 7 28 3 71 -15 74 -31 78 -32 53 -4 -11
11 -18 24 -16 28 2 3 -12 12 -31 19 -19 7 -32 17 -28 22 3 6 -4 5 -16 -3 -18
-11 -22 -11 -31 5 -11 19 -18 21 -39 7z"/>
<path d="M4312 1140 c0 -14 2 -19 5 -12 2 6 2 18 0 25 -3 6 -5 1 -5 -13z"/>
<path d="M2828 1143 c7 -3 16 -2 19 1 4 3 -2 6 -13 5 -11 0 -14 -3 -6 -6z"/>
<path d="M3223 1135 c-10 -10 -9 -15 0 -24 17 -14 39 2 31 22 -7 20 -15 21
-31 2z m27 -9 c0 -3 -4 -8 -10 -11 -5 -3 -10 -1 -10 4 0 6 5 11 10 11 6 0 10
-2 10 -4z"/>
<path d="M3334 1127 c3 -10 6 -21 6 -23 0 -2 7 -4 15 -4 18 0 19 9 4 30 -9 12
-10 11 -5 -5 l6 -20 -16 20 c-15 18 -16 18 -10 2z"/>
<path d="M3245 1090 c-3 -5 -1 -18 4 -27 11 -19 11 -19 15 15 3 23 -8 30 -19
12z"/>
<path d="M3950 1090 c0 -5 4 -10 9 -10 6 0 13 5 16 10 3 6 -1 10 -9 10 -9 0
-16 -4 -16 -10z"/>
<path d="M3332 1083 c11 -3 15 -11 12 -21 -5 -15 -4 -15 5 -2 16 23 13 30 -11
29 -17 -1 -18 -3 -6 -6z"/>
<path d="M3290 1065 c-9 -10 -9 -15 -1 -15 6 0 11 6 11 13 0 8 4 7 10 -3 6 -9
10 -10 10 -3 0 19 -17 24 -30 8z"/>
<path d="M4226 1061 c-3 -5 5 -11 19 -13 30 -6 32 -2 6 12 -11 6 -22 6 -25 1z"/>
<path d="M4065 1000 c3 -5 8 -10 11 -10 2 0 4 5 4 10 0 6 -5 10 -11 10 -5 0
-7 -4 -4 -10z"/>
<path d="M4140 1003 c0 -5 7 -16 14 -26 14 -18 16 -18 40 -2 14 10 23 21 20
26 -6 11 -74 12 -74 2z"/>
<path d="M4235 969 c-11 -17 1 -21 15 -4 8 9 8 15 2 15 -6 0 -14 -5 -17 -11z"/>
<path d="M3293 906 c15 -15 33 -26 38 -26 18 0 -1 20 -34 36 l-32 15 28 -25z"/>
<path d="M3260 870 c0 -5 5 -10 10 -10 6 0 10 5 10 10 0 6 -4 10 -10 10 -5 0
-10 -4 -10 -10z"/>
<path d="M3198 843 c7 -3 16 -2 19 1 4 3 -2 6 -13 5 -11 0 -14 -3 -6 -6z"/>
<path d="M3249 830 c-16 -17 -15 -40 2 -40 6 0 8 4 5 9 -4 5 -1 11 5 13 6 2
10 10 8 19 -4 13 -6 12 -20 -1z"/>
<path d="M3302 815 c-6 -14 -16 -25 -22 -25 -5 0 -10 -7 -10 -16 0 -14 2 -14
16 -3 16 13 38 59 31 65 -2 2 -9 -7 -15 -21z"/>
<path d="M2786 804 c-4 -9 -4 -19 -1 -22 2 -3 7 3 11 12 4 9 4 19 1 22 -2 3
-7 -3 -11 -12z"/>
<path d="M2798 703 c7 -3 16 -2 19 1 4 3 -2 6 -13 5 -11 0 -14 -3 -6 -6z"/>
<path d="M2944 651 c20 -22 26 -25 26 -13 0 4 -10 13 -22 21 -23 14 -23 14 -4
-8z"/>
<path d="M2982 636 l5 -26 -34 20 c-43 25 -52 26 -22 0 13 -10 19 -19 14 -20
-6 0 -16 5 -23 12 -6 6 -14 9 -17 6 -3 -3 13 -17 35 -32 37 -24 42 -25 56 -11
13 12 19 13 30 4 17 -14 18 -22 2 -16 -7 2 -21 -2 -30 -10 -10 -9 -22 -12 -29
-7 -19 11 -60 14 -54 3 3 -5 0 -6 -8 -3 -8 3 -18 1 -21 -5 -4 -5 2 -10 11 -10
10 1 29 -3 42 -7 21 -6 23 -5 18 12 -7 18 -6 18 7 1 13 -17 46 -14 46 4 0 5
12 9 28 8 15 -1 41 6 57 15 17 9 35 16 41 16 12 0 27 40 19 49 -3 2 -5 -1 -5
-7 0 -7 -6 -12 -13 -12 -7 0 -18 -5 -24 -11 -7 -7 -28 -13 -48 -15 -30 -3 -36
0 -31 12 3 9 6 18 6 20 0 3 6 2 13 -2 8 -5 8 -3 -2 9 -7 9 -17 14 -22 11 -5
-3 -18 0 -30 7 -20 10 -21 9 -17 -15z m51 -13 c-7 -17 -18 -16 -32 1 -10 11
-7 14 12 12 15 0 23 -6 20 -13z"/>
<path d="M2845 608 c-12 -40 -11 -67 3 -73 8 -3 17 -3 20 0 3 3 1 5 -5 5 -7 0
-9 15 -6 40 5 37 -3 56 -12 28z"/>
<path d="M3020 539 c0 -5 5 -7 10 -4 6 3 10 8 10 11 0 2 -4 4 -10 4 -5 0 -10
-5 -10 -11z"/>
<path d="M2905 520 c38 -10 80 -12 72 -4 -4 4 -28 8 -54 9 -39 3 -43 2 -18 -5z"/>
<path d="M3975 220 c-3 -5 -1 -10 4 -10 6 0 11 5 11 10 0 6 -2 10 -4 10 -3 0
-8 -4 -11 -10z"/>
<path d="M3870 155 c-7 -8 -17 -12 -24 -8 -8 4 -8 3 1 -7 9 -9 15 -8 32 9 12
12 17 21 12 21 -5 0 -14 -7 -21 -15z"/>
<path d="M3840 100 c0 -5 5 -10 10 -10 6 0 10 5 10 10 0 6 -4 10 -10 10 -5 0
-10 -4 -10 -10z"/>
<path d="M4024 76 c-5 -6 -13 -19 -17 -30 -6 -14 -14 -17 -37 -13 -16 4 -32 3
-35 -2 -2 -5 3 -8 13 -7 9 0 16 -5 15 -11 -2 -8 7 -13 21 -13 19 0 27 9 40 41
18 44 18 54 0 35z"/>
<path d="M3864 64 c3 -9 9 -27 12 -40 3 -13 10 -24 15 -24 13 0 11 17 -6 50
-16 31 -32 41 -21 14z"/>
<path d="M3840 10 c0 -5 5 -10 11 -10 5 0 7 5 4 10 -3 6 -8 10 -11 10 -2 0 -4
-4 -4 -10z"/>
<path d="M4535 10 c-3 -5 -1 -10 4 -10 6 0 11 5 11 10 0 6 -2 10 -4 10 -3 0
-8 -4 -11 -10z"/>
</g>
</svg>
